<svg width="106" height="96" viewBox="0 0 106 96" fill="none" xmlns="http://www.w3.org/2000/svg">
<g clip-path="url(#clipCat0)">
<path d="M19.9477 24.5727L20.0867 29.1926C20.1024 29.598 20.2519 29.9868 20.5117 30.2983C21.0912 30.9768 21.5528 31.4427 22.1535 32.1733C22.2966 32.3449 22.4898 32.4672 22.706 32.5232L28.1608 33.7797C29.0342 33.9751 29.811 34.4719 30.3551 35.1831C31.4561 36.6174 32.5243 38.5504 32.7078 40.8971C32.9647 44.1523 31.3054 45.5228 30.0557 49.1105C27.6605 55.9651 28.5104 57.6893 29.8992 63.471C30.3995 65.5606 31.4947 70.1052 33.3085 73.5962C33.6126 74.196 33.7777 74.8568 33.7914 75.5292C34.0328 86.0469 33.9575 90.8002 32.7078 91.0766C31.9351 91.2428 31.1239 90.4252 30.3068 90.8234C29.0686 91.4303 28.3424 93.4658 29.5033 95.6907C29.5519 95.7787 29.6233 95.852 29.71 95.903C29.7966 95.954 29.8953 95.9808 29.9958 95.9807C32.3794 95.9691 34.4385 96.0715 35.6979 95.8937C36.0302 95.8412 36.3286 95.66 36.5285 95.3892L38.4233 92.8318C38.9439 91.9888 39.1281 90.9804 38.9391 90.0076C38.4562 87.514 38.1394 83.3619 40.1579 79.1943C40.5814 78.3212 41.0865 77.4901 41.6665 76.7123C42.0836 76.1607 42.3583 75.5146 42.4662 74.8314L42.81 72.4944C45.0429 72.4944 46.5399 73.1671 49.1263 74.8952C50.942 76.1091 51.5273 77.1742 51.2742 79.1943C51.1139 79.6079 49.6594 83.5339 52.0314 87.284C54.5599 91.2854 59.132 91.4458 59.4816 91.4574C53.3198 92.8008 49.4605 93.0038 46.7331 92.0856C44.6238 91.3878 42.3329 90.0328 41.172 91.0766C40.0555 92.0856 39.7716 94.009 40.6679 95.625H72.1818C72.3425 95.6254 72.5014 95.5903 72.647 95.5223C72.7927 95.4544 72.9216 95.3552 73.0247 95.2318C73.1277 95.1083 73.2024 94.9637 73.2433 94.8082C73.2842 94.6527 73.2905 94.49 73.2616 94.3318L73.0472 93.1546C72.9925 92.8666 73.0121 92.5694 73.104 92.2911C73.196 92.0127 73.3572 91.7624 73.5726 91.5637C73.8198 91.3337 74.0709 91.1075 74.3181 90.8775C75.0058 90.9683 76.1551 90.8988 77.909 90.5914C91.2969 86.8529 96.6319 81.3419 97.6112 77.298C99.5544 69.3146 90.5319 62.4987 92.3071 53.4096C93.5645 47.0113 99.0928 43.3694 104.687 40.6516C105.246 40.2706 105.668 39.7186 105.888 39.0781C105.986 38.8321 106.021 38.5654 105.989 38.3025C105.957 38.0396 105.86 37.7889 105.706 37.5734C105.552 37.3579 105.347 37.1845 105.109 37.0691C104.87 36.9538 104.607 36.9001 104.343 36.9131C103.676 36.9392 103.021 37.0921 102.411 37.3635C96.7536 40.12 90.1843 44.5293 88.7665 51.2659C86.7904 60.6816 94.9476 67.6328 93.8234 75.535C93.3018 79.1285 89.261 83.2169 78.5522 86.2305C78.6584 86.0372 78.7763 85.8439 78.8999 85.6139C78.8999 85.6139 80.1941 83.1009 80.1941 83.0081C80.4587 82.3455 80.6705 81.6629 80.8276 80.9669C80.8276 80.9669 82.9794 71.8661 79.4369 63.3956C76.13 55.4992 69.6843 47.1234 58.5757 44.6897C52.9122 42.7934 51.1255 40.0872 50.2408 36.6058C50.094 36.0259 49.3272 28.5315 49.0819 25.1912C48.8871 22.6446 47.7384 20.2654 45.8658 18.53C44.9309 17.6544 43.9979 16.8908 43.0572 15.8702C41.1633 13.2645 40.1722 10.1108 40.2352 6.88932C40.2381 6.8044 40.2168 6.7204 40.1738 6.64712C40.1308 6.57383 40.0679 6.51427 39.9924 6.47538C39.9169 6.43649 39.8319 6.41987 39.7474 6.42745C39.6628 6.43502 39.5821 6.46649 39.5147 6.51818C38.2537 7.42416 37.2605 8.65391 36.6397 10.0777C36.0189 11.5015 35.7936 13.0666 35.9876 14.6079C32.765 14.98 29.6612 16.0463 26.8898 17.7336C26.7347 17.8333 26.6219 17.9868 26.573 18.1647C26.3103 19.1525 25.4237 21.7678 22.8528 23.2022C22.0953 23.6226 21.2682 23.9029 20.4112 24.0295C20.2821 24.0502 20.1645 24.1162 20.0796 24.2157C19.9946 24.3152 19.9479 24.4418 19.9477 24.5727Z" fill="#F15A24"/>
<path d="M30.2507 36.1341C30.95 37.2186 31.6492 38.4538 31.9177 40.3597C32.2403 42.6523 31.0987 44.6124 30.1174 46.7387C29.2424 48.6466 28.3346 51.2852 27.9386 55.1435C27.7049 53.5758 26.7488 49.731 23.7702 46.2342C21.7925 43.9155 19.2465 42.1509 16.3819 41.1136C10.1042 36.1361 8.17071 31.5238 7.60475 28.1623C6.94222 24.2421 8.09538 21.7833 7.28798 16.3457C6.75246 12.8098 5.62053 9.39054 3.94053 6.23403C3.2053 6.07079 2.5153 5.74666 1.92008 5.28492C0.853844 4.44792 -0.339874 2.78358 0.0889378 1.61216C0.668415 0.0290118 4.26697 -0.664945 6.65635 0.790625C7.97756 1.59477 8.45272 2.88796 9.2466 5.21339C11.2052 10.9622 12.3372 15.0718 12.3372 15.0718C13.8824 21.1821 13.9249 22.1139 14.9892 23.9812C16.3104 26.3008 17.931 27.6539 19.1692 28.6204C19.3346 28.7491 19.4484 28.933 19.4898 29.1385L19.6135 29.7455C19.663 30.0019 19.7736 30.2427 19.936 30.4471C20.5894 31.2363 21.2866 31.9881 22.0241 32.6991C22.2637 32.94 22.5652 33.1099 22.8952 33.1901C24.3169 33.5303 25.6168 33.7565 27.0752 34.1276C28.831 34.4756 29.3042 34.6882 30.2507 36.1341Z" fill="#F15A24"/>
<path d="M56.4353 91.4071C55.6328 91.0811 54.8658 90.6737 54.1464 90.1912C53.7783 89.933 53.4297 89.648 53.1033 89.3388C52.7281 89.7269 52.277 90.0335 51.7782 90.2396C49.7906 91.0437 47.7219 89.7273 46.8314 89.0488C46.6642 88.9219 46.4647 88.8446 46.2556 88.8258C46.0466 88.807 45.8365 88.8474 45.6493 88.9425C45.3016 89.1122 44.987 89.3426 44.7202 89.6229C44.5255 89.8316 44.3739 90.0766 44.274 90.3439C44.25 90.4056 44.2498 90.4739 44.2734 90.5357C44.2969 90.5975 44.3426 90.6484 44.4015 90.6784C45.3593 91.1833 46.3769 91.5651 47.4302 91.815C51.1872 92.6211 54.8031 92.0121 56.4353 91.4071Z" fill="#F15A24"/>
<path d="M35.58 14.2445C35.2265 14.2697 34.763 14.3702 34.4211 14.4166C33.9237 14.481 33.4327 14.587 32.9531 14.7336C32.7174 14.0068 32.8082 13.1582 32.9106 12.3328C33.1907 10.0731 35.7944 8.31787 36.9128 7.90227C37.0674 7.84427 37.2296 7.92353 37.1852 8.08204C36.992 8.77406 36.3005 9.64586 35.9837 10.6259C35.5259 12.0641 35.5298 12.9455 35.58 14.2445Z" fill="#F15A24"/>
</g>
<defs>
<clipPath id="clipCat0">
<rect width="106" height="96" fill="white" transform="matrix(-1 0 0 1 106 0)"/>
</clipPath>
</defs>
</svg>
