<svg width="411" height="74" viewBox="0 0 411 74" fill="none" xmlns="http://www.w3.org/2000/svg">
    <g clip-path="url(#clip0)">
        <path d="M360.974 18.8187C360.348 19.8282 359.792 20.8826 359.311 21.9738C359.253 22.1019 359.229 22.243 359.24 22.3836L359.373 24.2835C359.386 24.4704 359.329 24.6554 359.215 24.8011C358.302 25.9689 357.426 27.149 356.579 28.4425C356.457 28.8891 356.566 29.0776 356.75 29.2237C357.714 29.8261 358.737 30.3041 359.727 30.8436C360.578 31.065 361.473 31.0352 362.308 30.7576C364.113 30.1143 364.623 28.4356 365.141 28.5244C365.722 28.6255 366.1 30.927 365.678 38.8912C365.606 40.2519 365.985 41.5974 366.754 42.706C368.353 45.0134 369.952 47.3213 371.549 49.6295C371.63 49.7454 371.688 49.8767 371.718 50.0159C371.749 50.155 371.752 50.299 371.728 50.4395C370.327 58.4802 368.598 60.484 367.224 60.7312C366.68 60.8295 365.46 60.7817 364.642 61.6763C364.241 62.1429 363.992 62.7286 363.932 63.3495C363.924 63.4196 363.93 63.4909 363.95 63.5585C363.97 63.626 364.004 63.6884 364.049 63.7414C364.095 63.7944 364.15 63.8368 364.213 63.8658C364.276 63.8948 364.343 63.9097 364.412 63.9095H368.386C368.666 63.9102 368.942 63.8348 369.185 63.6909C369.428 63.5471 369.631 63.3399 369.772 63.09L376.42 51.1921C376.509 51.0333 376.546 50.8496 376.526 50.6676L376.141 47.253C376.763 47.5345 377.287 48.0056 377.643 48.603C377.998 49.2004 378.168 49.8955 378.129 50.5952C377.887 50.8438 375.796 53.0537 376.214 56.3495C376.62 59.5565 379.068 61.1382 379.378 61.3308C378.512 61.6504 377.272 61.9495 375.88 61.675C374.351 61.3731 373.727 60.5932 372.799 60.8159C372.18 60.9634 371.42 61.5575 370.782 63.5011C370.764 63.5562 370.759 63.615 370.767 63.6726C370.776 63.7302 370.797 63.7849 370.831 63.8318C370.864 63.8787 370.909 63.9165 370.959 63.9419C371.01 63.9674 371.066 63.9797 371.123 63.9778C377.019 63.7975 382.983 64.1731 388.883 64.0242C389.002 64.0207 389.118 63.9903 389.224 63.9352C389.331 63.8801 389.424 63.8016 389.497 63.7053C389.571 63.6091 389.623 63.4974 389.65 63.3781C389.677 63.2588 389.678 63.1348 389.654 63.0149C389.501 62.3046 389.339 61.5015 389.21 60.9948C389.753 61.1983 390.598 61.522 391.626 61.9386C393.852 62.8414 395.314 63.5243 395.624 63.6568C397.166 64.3138 400.167 64.1308 406.619 60.1357C405.284 60.5304 404.383 60.7011 404.288 60.4785C404.093 60.0264 407.512 58.7807 409.286 56.0927C410.314 54.5329 411.201 51.8586 410.119 47.0781C409.871 48.6612 409.721 48.9726 409.619 48.9685C409.355 48.9548 409.869 46.5536 408.619 44.6742C407.618 43.165 406.426 43.4149 405.288 42.0108C404.645 41.2173 403.963 39.8255 404.122 37.2877C403.411 37.8553 402.887 38.6358 402.623 39.5222C402.496 39.9653 402.44 40.4265 402.456 40.8881C401.842 39.7724 401.555 38.4975 401.629 37.2173C401.703 35.937 402.135 34.7063 402.873 33.6737C402.136 34.0356 400.723 34.8674 399.874 36.5078C398.475 39.2095 399.58 42.213 400.041 43.4641C401.164 46.5195 402.436 46.2491 402.955 48.4454C403.847 52.2083 400.796 55.8715 399.54 57.378C398.264 58.9173 396.393 61.1601 394.126 60.8159C393.008 60.6465 392.192 59.9048 391.711 59.3558C393.395 56.0792 394.227 52.4088 394.126 48.7021C394.039 45.8653 393.861 40.2899 390.212 37.0214C387.55 34.6421 384.555 34.836 382.381 31.3531C381.904 30.5835 381.531 29.7498 381.274 28.8754C381.165 28.5148 380.958 28.1939 380.678 27.9508L374.635 22.6786C374.336 20.6073 373.367 18.7008 371.886 17.2685C369.193 14.7034 365.914 14.829 365.306 14.8632C364.948 14.2421 364.428 13.7364 363.807 13.4031C363.202 13.0958 362.968 13.2173 362.307 12.8882C361.17 12.3227 360.896 11.4841 360.558 11.6002C360.063 11.7695 360.274 13.6913 360.308 14.0041C360.468 15.4091 360.862 16.7751 361.474 18.0415C361.307 18.2928 361.14 18.5519 360.974 18.8187Z" fill="#333333"/>
        <path d="M370.386 48.642C370.68 49.0618 370.971 49.4716 371.262 49.8713C371.128 51.7613 370.75 53.6244 370.137 55.4112C369.537 57.1581 368.888 58.8463 368.034 59.898C367.834 60.0764 367.6 60.2078 367.346 60.2832C366.426 60.5892 365.459 60.7175 364.494 60.6615C364.449 60.6591 364.404 60.6461 364.364 60.6234C364.324 60.6007 364.29 60.569 364.263 60.5306C364.237 60.4923 364.219 60.4482 364.212 60.4018C364.204 60.3554 364.207 60.3078 364.22 60.2627C364.303 59.969 364.427 59.6658 364.529 59.3681C364.598 59.1687 364.714 58.9899 364.865 58.847C365.017 58.7042 365.2 58.6018 365.399 58.5486L366.394 58.2754C366.594 58.2211 366.781 58.1243 366.943 57.9911C367.105 57.858 367.238 57.6915 367.334 57.5023C367.834 56.5197 368.25 55.4936 368.576 54.436C369.294 52.0862 369.569 49.6165 369.386 47.1601C369.705 47.6463 370.038 48.1403 370.386 48.642Z" fill="#333333"/>
        <path d="M361.204 18.0046C360.784 17.2813 360.459 16.5043 360.235 15.6936C360.056 14.9796 359.962 14.2458 359.955 13.5082C359.658 13.4485 359.373 13.3397 359.111 13.1859C358.713 12.9537 358.629 12.7652 358.517 12.7994C358.223 12.8909 358.183 14.4138 358.704 15.6977C359.215 16.957 360.339 17.868 361.009 18.2928C361.071 18.215 361.11 18.0784 361.204 18.0046Z" fill="#333333"/>
        <path d="M378.727 61.1696C378.136 61.3474 377.523 61.4394 376.908 61.4428C375.899 61.4444 374.905 61.1902 374.013 60.7025C373.682 60.5086 373.616 60.4758 373.808 60.077C374.111 59.435 374.421 59.2247 374.666 59.2042C375.676 59.1181 375.501 59.7806 376.215 60.0524C376.734 60.2292 377.278 60.3192 377.825 60.3187C378.098 60.6313 378.4 60.9162 378.727 61.1696Z" fill="#333333"/>
        <path d="M349.678 39.7504L349.633 41.3211C349.628 41.4589 349.578 41.5911 349.492 41.6967C349.303 41.9262 349.149 42.0846 348.95 42.3332C348.904 42.3917 348.84 42.4333 348.769 42.452L346.97 42.8795C346.682 42.9455 346.426 43.1138 346.247 43.3548C345.811 43.911 345.541 44.5858 345.47 45.2971C345.386 46.4034 345.933 46.8692 346.345 48.0875C347.14 50.4095 346.855 51.0022 346.396 52.9663C346.232 53.6766 345.867 55.22 345.273 56.4069C345.172 56.6105 345.117 56.8352 345.113 57.0639C345.033 60.637 345.059 62.2541 345.47 62.3456C345.726 62.4016 345.992 62.1244 346.265 62.2596C346.673 62.4658 346.913 63.157 346.53 63.9123C346.514 63.9425 346.491 63.9677 346.462 63.9852C346.433 64.0028 346.401 64.012 346.367 64.012C345.582 64.012 344.902 64.042 344.488 63.9819C344.378 63.9639 344.28 63.9027 344.213 63.8112L343.588 62.9425C343.418 62.6568 343.357 62.3158 343.419 61.9864C343.578 61.1396 343.684 59.7287 343.021 58.3123C342.881 58.016 342.714 57.7338 342.523 57.4696C342.385 57.2825 342.294 57.0628 342.258 56.8303L342.146 56.0368C341.409 56.0368 340.915 56.2649 340.062 56.8563C339.463 57.266 339.267 57.6294 339.353 58.3164C339.406 58.453 339.883 59.7915 339.104 61.0645C338.271 62.4303 336.762 62.4795 336.647 62.4822C338.679 62.9398 339.952 63.0067 340.853 62.6967C341.548 62.459 342.31 61.9987 342.686 62.3538C343.062 62.709 343.148 63.3495 342.853 63.8986H332.454C332.401 63.8985 332.349 63.8864 332.301 63.8632C332.253 63.84 332.211 63.8062 332.177 63.7643C332.143 63.7224 332.118 63.6733 332.104 63.6206C332.091 63.5678 332.089 63.5126 332.098 63.4588L332.169 63.06C332.188 62.9612 332.182 62.8591 332.152 62.7635C332.121 62.6678 332.068 62.5818 331.996 62.5136L331.749 62.2801C331.523 62.3115 331.144 62.2801 330.565 62.1831C326.151 60.9129 324.391 59.0417 324.074 57.6662C323.429 54.9564 326.404 52.6344 325.817 49.5476C325.404 47.3746 323.581 46.133 321.736 45.211C321.551 45.0824 321.411 44.8949 321.339 44.677C321.307 44.5936 321.295 44.5032 321.306 44.4141C321.316 44.3249 321.348 44.2399 321.398 44.1667C321.449 44.0936 321.516 44.0346 321.594 43.9951C321.673 43.9556 321.759 43.937 321.846 43.9408C322.066 43.9498 322.282 44.0022 322.483 44.0951C324.35 45.0307 326.516 46.5291 326.987 48.8183C327.639 52.0171 324.946 54.3786 325.319 57.0639C325.492 58.285 326.824 59.6727 330.353 60.6971L330.238 60.4867C330.238 60.4867 329.811 59.6317 329.811 59.6017C329.724 59.3773 329.654 59.1462 329.602 58.9105C329.602 58.9105 328.892 55.8182 330.06 52.9404C331.151 50.2579 333.277 47.4128 336.94 46.5864C338.806 45.9418 339.395 45.0212 339.688 43.8397C339.736 43.6417 339.989 41.0957 340.068 39.9607C340.133 39.0957 340.511 38.2876 341.128 37.6975C341.436 37.3997 341.744 37.1416 342.055 36.7947C342.678 35.9087 343.004 34.8374 342.983 33.7434C342.981 33.7144 342.988 33.6856 343.002 33.6605C343.016 33.6353 343.037 33.6149 343.062 33.6015C343.087 33.5881 343.115 33.5824 343.143 33.585C343.171 33.5877 343.198 33.5985 343.22 33.6163C343.668 33.9534 344.014 34.4154 344.216 34.948C344.383 35.3994 344.441 35.8862 344.383 36.3658C345.445 36.4916 346.469 36.8537 347.382 37.4271C347.433 37.461 347.47 37.513 347.487 37.5732C347.574 37.9092 347.866 38.8025 348.713 39.286C348.963 39.4287 349.236 39.5236 349.519 39.566C349.562 39.5716 349.603 39.5934 349.632 39.6273C349.661 39.6613 349.677 39.705 349.678 39.7504Z" fill="#333333"/>
        <path d="M346.281 43.6786C345.992 44.1062 345.803 44.5978 345.731 45.1141C345.624 45.894 345.996 46.5564 346.325 47.2831C346.719 48.1865 346.961 49.1521 347.043 50.139C347.231 49.0214 347.706 47.9759 348.418 47.111C349.07 46.3233 349.909 45.7242 350.854 45.3722C352.924 43.6813 353.562 42.1174 353.755 40.9701C353.974 39.6384 353.593 38.8038 353.86 36.9558C354.036 35.7546 354.409 34.593 354.963 33.5207C355.204 33.4646 355.43 33.3545 355.625 33.1984C355.978 32.9129 356.37 32.3488 356.229 31.9527C356.037 31.4146 354.852 31.1797 354.064 31.6796C353.628 31.9527 353.471 32.3912 353.209 33.182C352.564 35.1352 352.189 36.5311 352.189 36.5311C351.679 38.6072 351.659 38.924 351.315 39.5592C350.965 40.177 350.496 40.7141 349.936 41.1367C349.882 41.1809 349.844 41.2432 349.83 41.3129L349.79 41.5192C349.774 41.6065 349.737 41.6885 349.683 41.7582C349.467 42.0256 349.238 42.2809 348.995 42.5231C348.916 42.6042 348.817 42.6618 348.708 42.6897C348.239 42.8044 347.81 42.8809 347.329 43.0079C346.749 43.1145 346.592 43.1882 346.281 43.6786Z" fill="#333333"/>
        <path d="M337.647 62.4576C337.911 62.3478 338.164 62.2105 338.402 62.0479C338.523 61.9599 338.638 61.8627 338.745 61.7569C338.869 61.8882 339.018 61.991 339.183 62.0588C339.839 62.3319 340.521 61.8853 340.814 61.649C340.869 61.6059 340.935 61.5796 341.004 61.5733C341.073 61.5671 341.142 61.581 341.204 61.6135C341.318 61.6713 341.422 61.7494 341.511 61.8443C341.574 61.9156 341.624 61.9985 341.658 62.0888C341.666 62.11 341.666 62.1333 341.658 62.1544C341.65 62.1756 341.635 62.193 341.616 62.2036C341.299 62.3747 340.964 62.5045 340.617 62.5901C339.377 62.8701 338.185 62.6638 337.647 62.4576Z" fill="#333333"/>
        <path d="M344.523 36.2442C344.64 36.2538 344.788 36.2879 344.903 36.3029C345.068 36.3248 345.23 36.3609 345.388 36.4108C345.45 36.1418 345.454 35.8623 345.401 35.5913C345.31 34.8237 344.45 34.2255 344.077 34.0889C344.026 34.0684 343.972 34.0957 343.987 34.149C344.052 34.3839 344.278 34.6803 344.384 35.0136C344.511 35.4097 344.559 35.8285 344.523 36.2442Z" fill="#333333"/>
        <path d="M396.74 65.5827H321.968V66.3448H396.74V65.5827Z" fill="#333333"/>
        <path d="M321.303 29.2756L359.344 0L397.634 29.2756L396.762 30.5336L359.48 1.8999L322.182 30.6347L321.303 29.2756Z" fill="#F15A24"/>
    </g>
    <g clip-path="url(#clip1)">
        <path d="M16.3786 35.7241C20.52 35.7241 24.9716 36.9557 28.0428 39.7083L25.2819 43.6507C23.0578 41.8821 19.7043 40.5701 16.647 40.5701C9.69945 40.5701 6.0496 45.2103 6.0496 50.5901C6.0496 56.0567 9.8354 61.0216 16.6924 61.0216C20.0738 61.0216 23.4587 59.5006 25.8605 57.3236L28.8899 61.1438C27.2781 62.6708 25.3449 63.8776 23.2089 64.6899C21.0729 65.5023 18.7793 65.9031 16.4693 65.8676C6.54113 65.8676 0.130371 59.2562 0.130371 50.6705C0.130371 42.2101 6.85138 35.7241 16.3786 35.7241Z" fill="#333333"/>
        <path d="M44.5316 52.2333H45.5111V51.9439C45.5111 49.1945 43.5973 48.2491 41.2373 48.2491C39.0098 48.2491 36.7404 49.1109 34.9137 50.2621L32.8221 46.5223C34.6906 45.1267 38.3439 43.9498 41.7254 43.9498C47.6516 43.9498 51.1654 46.9886 51.1654 52.2847V65.3853H45.8981V63.6199C45.8967 63.1114 45.941 62.6038 46.0306 62.1021H45.9434C45.2091 63.254 44.161 64.2087 42.9031 64.8715C41.6452 65.5342 40.2213 65.8821 38.7727 65.8805C34.6767 65.8805 31.2952 63.4141 31.2952 59.5971C31.2848 53.3009 39.4873 52.2333 44.5316 52.2333ZM40.3484 61.8802C43.5102 61.8802 45.5774 58.9218 45.5774 56.3782V55.8026H44.5978C41.7463 55.8026 36.9286 56.1724 36.9286 59.1276C36.9042 60.5264 38.0616 61.8834 40.3484 61.8834V61.8802Z" fill="#333333"/>
        <path d="M58.0503 48.8633H55.1151V44.7183H58.1863V38.7211H63.7046V44.7183H68.8674V48.8633H63.7046V57.0374C63.7046 60.4878 66.6398 60.9798 68.1981 60.9798C68.542 60.9885 68.886 60.9605 69.2229 60.8962V65.456C68.6452 65.5292 68.0631 65.57 67.4799 65.5782C64.3181 65.5782 58.0399 64.7164 58.0399 57.6934L58.0503 48.8633Z" fill="#333333"/>
        <path d="M74.3474 36.229H85.1192C94.88 36.229 101.238 41.5669 101.238 50.7669C101.238 59.9669 94.8695 65.3853 85.1192 65.3853H74.3474V36.229ZM84.8054 60.8287C91.2162 60.8287 95.3122 57.3365 95.3122 50.7669C95.3122 44.2777 91.129 40.7984 84.8054 40.7984H80.0889V60.8383L84.8054 60.8287Z" fill="#333333"/>
        <path d="M117.176 43.9465C124.124 43.9465 129.688 48.5031 129.688 54.9119C129.688 61.3207 124.11 65.8773 117.222 65.8773C110.333 65.8773 104.756 61.3593 104.756 54.9119C104.756 48.4645 110.319 43.9465 117.176 43.9465ZM117.222 61.4397C120.917 61.4397 123.988 58.8125 123.988 54.9119C123.988 51.0113 120.917 48.3809 117.222 48.3809C113.527 48.3809 110.501 51.0499 110.501 54.9119C110.501 58.7739 113.527 61.43 117.222 61.43V61.4397Z" fill="#333333"/>
        <path d="M143.224 69.5624C146.71 69.5624 149.635 68.2086 149.635 64.4688V63.1568C149.642 62.7858 149.671 62.4155 149.722 62.0474H149.635C148.299 63.8964 146.295 64.964 143.266 64.964C136.768 64.964 133.114 60.118 133.114 54.3685C133.114 48.6189 136.6 43.9369 143.133 43.9369C145.671 43.9369 148.387 44.7569 149.899 46.6895H150.035C149.975 46.5028 149.944 46.3088 149.945 46.1139V44.4289H155.289V64.099C155.289 71.2892 149.234 73.9968 143.311 73.9968C140.496 73.974 137.725 73.3569 135.209 72.1928L136.952 68.2086C138.908 69.0837 141.05 69.5461 143.224 69.5624ZM144.514 60.5586C147.184 60.5586 149.767 59.1212 149.767 54.4006C149.767 49.68 147.184 48.3616 144.158 48.3616C140.728 48.3616 138.814 50.6608 138.814 54.1948C138.814 57.8574 140.818 60.5682 144.514 60.5682V60.5586Z" fill="#333333"/>
        <path d="M161.877 36.229H167.622V48.5771H182.089V36.229H187.806V65.3853H182.089V53.1368H167.622V65.3724H161.877V36.229Z" fill="#F15A24"/>
        <path d="M209.918 35.7241C219.487 35.7241 226.253 42.2519 226.253 50.5901C226.253 59.1726 219.487 65.8676 209.918 65.8676C200.349 65.8676 193.576 59.1726 193.576 50.5901C193.576 42.2519 200.356 35.7241 209.918 35.7241ZM209.918 61.0216C215.97 61.0216 220.334 56.5036 220.334 50.5901C220.334 44.9209 215.97 40.5701 209.918 40.5701C203.866 40.5701 199.498 44.9112 199.498 50.5901C199.498 56.5036 203.863 61.0216 209.918 61.0216Z" fill="#F15A24"/>
        <path d="M231.688 36.229H237.433V54.8797C237.433 58.8221 240.194 61.0409 244.405 61.0409C248.616 61.0409 251.394 58.8221 251.394 54.8797V36.229H257.136V54.9151C257.136 61.4429 252.06 65.8805 244.45 65.8805C236.84 65.8805 231.671 61.4429 231.671 54.9151L231.688 36.229Z" fill="#F15A24"/>
        <path d="M265.304 57.8992C267.172 59.4588 270.201 60.9798 273.14 60.9798C275.988 60.9798 277.769 59.626 277.769 57.6548C277.769 52.1079 263.034 53.2591 263.034 44.1813C263.034 39.0362 267.664 35.7241 273.806 35.7241C277.1 35.7241 280.572 36.7499 283.065 38.8433L280.534 43.1555C278.791 41.7181 276.082 40.6087 273.586 40.6087C270.693 40.6087 268.779 41.9239 268.779 43.9369C268.779 49.3585 283.514 47.9629 283.514 57.2432C283.514 61.967 279.774 65.8676 273.008 65.8676C269.089 65.8676 265.039 64.5106 262.201 61.8834L265.304 57.8992Z" fill="#F15A24"/>
        <path d="M289.249 36.229H308.178V40.7888H294.997V48.4259H305.633V52.9857H294.997V60.8287H308.889V65.3853H289.249V36.229Z" fill="#F15A24"/>
    </g>
    <defs>
        <clipPath id="clip0">
            <rect width="89.3103" height="66.3448" fill="white" transform="translate(321.303)"/>
        </clipPath>
        <clipPath id="clip1">
            <rect width="308.759" height="38.2759" fill="white" transform="translate(0.130371 35.7241)"/>
        </clipPath>
    </defs>
</svg>
