<svg width="390" height="137" viewBox="0 0 390 137" fill="none" xmlns="http://www.w3.org/2000/svg">
<g clip-path="url(#clip0)">
<path d="M188.974 22.1247C188.216 23.3115 187.543 24.5512 186.962 25.8341C186.892 25.9846 186.863 26.1506 186.877 26.3158L187.037 28.5495C187.052 28.7692 186.984 28.9867 186.846 29.1581C185.742 30.531 184.682 31.9184 183.658 33.4391C183.511 33.9642 183.642 34.1858 183.865 34.3576C185.031 35.0658 186.268 35.6278 187.465 36.2621C188.494 36.5224 189.576 36.4873 190.587 36.1609C192.768 35.4046 193.385 33.4311 194.011 33.5355C194.715 33.6543 195.171 36.3601 194.662 45.7235C194.574 47.3232 195.033 48.9051 195.963 50.2085C197.897 52.9212 199.83 55.6344 201.761 58.3482C201.859 58.4844 201.929 58.6389 201.966 58.8024C202.003 58.966 202.007 59.1353 201.978 59.3005C200.283 68.7538 198.192 71.1095 196.531 71.4002C195.873 71.5158 194.398 71.4596 193.409 72.5114C192.923 73.06 192.623 73.7484 192.551 74.4785C192.54 74.5609 192.547 74.6447 192.572 74.7241C192.596 74.8036 192.637 74.8769 192.692 74.9392C192.747 75.0015 192.814 75.0514 192.89 75.0855C192.966 75.1195 193.048 75.1371 193.13 75.1368H197.936C198.275 75.1376 198.608 75.049 198.903 74.8799C199.197 74.7108 199.441 74.4671 199.612 74.1734L207.652 60.1853C207.759 59.9986 207.804 59.7826 207.78 59.5686L207.314 55.5542C208.066 55.8852 208.7 56.439 209.13 57.1414C209.56 57.8437 209.765 58.6609 209.718 59.4835C209.425 59.7758 206.897 62.374 207.402 66.2488C207.894 70.0192 210.854 71.8787 211.229 72.1051C210.181 72.4809 208.682 72.8325 206.998 72.5098C205.149 72.1549 204.395 71.238 203.272 71.4997C202.524 71.6731 201.604 72.3717 200.834 74.6567C200.812 74.7214 200.805 74.7906 200.815 74.8584C200.826 74.9261 200.852 74.9903 200.893 75.0455C200.933 75.1006 200.987 75.1451 201.048 75.175C201.11 75.2049 201.177 75.2194 201.246 75.2171C208.376 75.0052 215.587 75.4468 222.722 75.2717C222.866 75.2675 223.007 75.2318 223.135 75.167C223.264 75.1022 223.376 75.01 223.465 74.8968C223.554 74.7837 223.617 74.6523 223.65 74.512C223.683 74.3718 223.684 74.226 223.655 74.0851C223.47 73.25 223.273 72.3058 223.118 71.7101C223.775 71.9493 224.797 72.3299 226.04 72.8197C228.731 73.8811 230.5 74.684 230.874 74.8398C232.739 75.6122 236.367 75.397 244.17 70.7C242.555 71.1641 241.466 71.3648 241.351 71.1031C241.115 70.5716 245.25 69.1071 247.395 65.9469C248.638 64.1131 249.711 60.9689 248.402 55.3486C248.103 57.2097 247.922 57.5759 247.798 57.571C247.478 57.555 248.1 54.732 246.589 52.5224C245.378 50.748 243.936 51.0419 242.56 49.3911C241.783 48.4581 240.958 46.8218 241.151 43.8383C240.29 44.5055 239.657 45.4231 239.337 46.4653C239.184 46.9863 239.116 47.5285 239.135 48.0711C238.394 46.7594 238.047 45.2605 238.136 43.7554C238.226 42.2503 238.748 40.8034 239.64 39.5893C238.749 40.0149 237.04 40.9928 236.013 42.9213C234.322 46.0976 235.658 49.6288 236.215 51.0997C237.574 54.6918 239.111 54.3739 239.739 56.956C240.817 61.38 237.128 65.6867 235.61 67.4579C234.067 69.2677 231.803 71.9044 229.063 71.4997C227.711 71.3006 226.724 70.4287 226.142 69.7831C228.179 65.931 229.185 61.6157 229.063 57.2579C228.957 53.9227 228.742 47.3678 224.329 43.5251C221.111 40.7278 217.489 40.9559 214.86 36.8611C214.283 35.9563 213.832 34.9761 213.521 33.9482C213.389 33.5242 213.139 33.1469 212.8 32.861L205.492 26.6627C205.131 24.2275 203.96 21.986 202.168 20.3021C198.912 17.2864 194.947 17.4341 194.212 17.4743C193.778 16.7441 193.15 16.1496 192.398 15.7577C191.668 15.3964 191.384 15.5393 190.585 15.1523C189.211 14.4875 188.879 13.5015 188.471 13.638C187.871 13.8372 188.126 16.0965 188.168 16.4642C188.361 18.1161 188.838 19.722 189.577 21.211C189.376 21.5064 189.174 21.811 188.974 22.1247Z" fill="#333333"/>
<path d="M200.355 57.1872C200.71 57.6808 201.063 58.1625 201.414 58.6325C201.252 60.8545 200.794 63.0448 200.054 65.1456C199.328 67.1994 198.543 69.1842 197.51 70.4206C197.269 70.6303 196.986 70.7849 196.679 70.8735C195.566 71.2333 194.397 71.3841 193.23 71.3183C193.175 71.3154 193.121 71.3001 193.073 71.2734C193.024 71.2468 192.983 71.2095 192.951 71.1644C192.919 71.1192 192.898 71.0675 192.889 71.0129C192.879 70.9583 192.883 70.9024 192.898 70.8494C192.999 70.5041 193.148 70.1476 193.272 69.7976C193.355 69.5632 193.495 69.3529 193.679 69.185C193.862 69.0171 194.084 68.8966 194.324 68.8341L195.527 68.5129C195.769 68.4491 195.996 68.3352 196.191 68.1787C196.387 68.0222 196.548 67.8265 196.664 67.6041C197.269 66.4488 197.771 65.2425 198.165 63.999C199.034 61.2365 199.366 58.3329 199.146 55.4449C199.531 56.0166 199.934 56.5974 200.355 57.1872Z" fill="#333333"/>
<path d="M189.251 21.1676C188.744 20.3172 188.35 19.4037 188.08 18.4506C187.863 17.6112 187.749 16.7484 187.74 15.8813C187.382 15.8111 187.037 15.6832 186.72 15.5024C186.239 15.2294 186.137 15.0078 186.002 15.0479C185.647 15.1555 185.599 16.946 186.228 18.4554C186.846 19.936 188.205 21.007 189.015 21.5064C189.091 21.4149 189.137 21.2543 189.251 21.1676Z" fill="#333333"/>
<path d="M210.441 71.9156C209.726 72.1246 208.986 72.2327 208.241 72.2368C207.021 72.2387 205.819 71.9398 204.741 71.3665C204.341 71.1384 204.261 71.0999 204.493 70.631C204.86 69.8763 205.235 69.629 205.531 69.6049C206.752 69.5037 206.54 70.2825 207.404 70.6021C208.031 70.81 208.689 70.9157 209.35 70.9152C209.681 71.2827 210.046 71.6176 210.441 71.9156Z" fill="#333333"/>
<path d="M175.313 46.7335L175.258 48.5802C175.252 48.7422 175.193 48.8977 175.088 49.0218C174.859 49.2915 174.674 49.4778 174.433 49.7701C174.377 49.8388 174.3 49.8878 174.214 49.9098L172.038 50.4124C171.69 50.49 171.381 50.6878 171.164 50.9712C170.637 51.625 170.311 52.4184 170.225 53.2547C170.123 54.5554 170.784 55.1029 171.282 56.5353C172.243 59.2652 171.899 59.9621 171.345 62.2712C171.146 63.1062 170.704 64.9208 169.986 66.3162C169.864 66.5555 169.798 66.8197 169.793 67.0886C169.696 71.2894 169.727 73.1906 170.225 73.2982C170.534 73.364 170.856 73.0381 171.186 73.197C171.68 73.4395 171.97 74.2521 171.507 75.1401C171.487 75.1756 171.459 75.2052 171.424 75.2258C171.389 75.2464 171.35 75.2573 171.31 75.2573C170.36 75.2573 169.538 75.2926 169.036 75.222C168.904 75.2008 168.785 75.1288 168.705 75.0212L167.949 73.9999C167.743 73.664 167.67 73.2631 167.744 72.8759C167.936 71.8803 168.064 70.2215 167.263 68.5563C167.094 68.2079 166.892 67.8762 166.661 67.5655C166.494 67.3455 166.383 67.0873 166.34 66.814L166.204 65.881C165.314 65.881 164.716 66.1492 163.685 66.8445C162.96 67.3262 162.723 67.7534 162.828 68.5611C162.892 68.7217 163.468 70.2954 162.526 71.792C161.519 73.3978 159.694 73.4556 159.555 73.4588C162.012 73.9967 163.552 74.0754 164.641 73.7109C165.482 73.4315 166.403 72.8903 166.858 73.3078C167.313 73.7254 167.417 74.4785 167.06 75.124H154.485C154.421 75.1238 154.358 75.1096 154.3 75.0823C154.242 75.055 154.19 75.0154 154.149 74.9661C154.108 74.9168 154.078 74.8591 154.062 74.7971C154.045 74.7351 154.043 74.6702 154.054 74.6069L154.14 74.1381C154.163 74.0219 154.156 73.9019 154.119 73.7895C154.082 73.677 154.017 73.5759 153.931 73.4957L153.633 73.2211C153.359 73.2581 152.901 73.2211 152.201 73.1071C146.863 71.6137 144.734 69.4138 144.351 67.7968C143.571 64.6109 147.169 61.881 146.459 58.2519C145.96 55.6971 143.755 54.2374 141.524 53.1535C141.3 53.0022 141.131 52.7817 141.043 52.5256C141.004 52.4275 140.991 52.3213 141.003 52.2165C141.016 52.1117 141.054 52.0118 141.115 51.9257C141.176 51.8397 141.258 51.7703 141.352 51.7239C141.447 51.6775 141.552 51.6556 141.657 51.6601C141.923 51.6706 142.184 51.7322 142.427 51.8415C144.684 52.9415 147.304 54.7031 147.874 57.3944C148.662 61.1552 145.405 63.9316 145.857 67.0886C146.065 68.5242 147.677 70.1557 151.944 71.36L151.805 71.1127C151.805 71.1127 151.289 70.1075 151.289 70.0722C151.183 69.8084 151.099 69.5367 151.036 69.2596C151.036 69.2596 150.177 65.6241 151.59 62.2407C152.909 59.0869 155.48 55.742 159.909 54.7705C162.166 54.0126 162.879 52.9303 163.233 51.5413C163.29 51.3084 163.596 48.3152 163.693 46.9808C163.771 45.9639 164.228 45.0138 164.974 44.32C165.346 43.9699 165.719 43.6664 166.095 43.2586C166.849 42.2169 167.242 40.9574 167.217 39.6712C167.215 39.6372 167.223 39.6033 167.24 39.5738C167.257 39.5442 167.282 39.5201 167.312 39.5044C167.343 39.4887 167.377 39.482 167.41 39.4851C167.444 39.4882 167.477 39.5009 167.503 39.5219C168.045 39.9182 168.463 40.4613 168.708 41.0875C168.91 41.6182 168.98 42.1906 168.91 42.7543C170.195 42.9023 171.432 43.328 172.537 44.002C172.598 44.0419 172.643 44.103 172.663 44.1739C172.769 44.5689 173.121 45.6191 174.147 46.1875C174.449 46.3553 174.779 46.4669 175.12 46.5167C175.173 46.5233 175.222 46.549 175.257 46.5889C175.293 46.6287 175.312 46.6802 175.313 46.7335Z" fill="#333333"/>
<path d="M171.205 51.3518C170.855 51.8545 170.627 52.4326 170.541 53.0395C170.411 53.9564 170.861 54.7352 171.258 55.5895C171.734 56.6517 172.028 57.7869 172.126 58.9472C172.354 57.6332 172.928 56.4041 173.789 55.3872C174.578 54.4612 175.593 53.7567 176.735 53.343C179.239 51.355 180.009 49.5164 180.243 48.1675C180.508 46.6018 180.048 45.6207 180.37 43.4481C180.583 42.0358 181.034 40.6701 181.704 39.4095C181.996 39.3434 182.269 39.2141 182.505 39.0305C182.931 38.6949 183.405 38.0317 183.236 37.566C183.003 36.9333 181.57 36.6571 180.617 37.2449C180.089 37.566 179.9 38.0815 179.583 39.0112C178.803 41.3075 178.35 42.9487 178.35 42.9487C177.733 45.3895 177.709 45.762 177.293 46.5087C176.87 47.2351 176.302 47.8665 175.625 48.3634C175.559 48.4153 175.514 48.4886 175.497 48.5705L175.449 48.813C175.429 48.9158 175.384 49.0121 175.319 49.094C175.058 49.4085 174.781 49.7086 174.488 49.9933C174.391 50.0887 174.271 50.1564 174.14 50.1892C173.573 50.3241 173.054 50.414 172.472 50.5633C171.771 50.6886 171.582 50.7753 171.205 51.3518Z" fill="#333333"/>
<path d="M160.764 73.4299C161.084 73.3008 161.39 73.1394 161.677 72.9482C161.824 72.8448 161.963 72.7305 162.092 72.6061C162.242 72.7604 162.423 72.8814 162.622 72.961C163.415 73.2822 164.24 72.7571 164.594 72.4793C164.661 72.4285 164.74 72.3977 164.824 72.3903C164.907 72.3829 164.991 72.3993 165.065 72.4375C165.204 72.5055 165.33 72.5973 165.437 72.7089C165.514 72.7927 165.574 72.8902 165.615 72.9963C165.624 73.0212 165.624 73.0486 165.614 73.0735C165.605 73.0983 165.587 73.1188 165.563 73.1312C165.181 73.3324 164.776 73.4851 164.356 73.5857C162.856 73.9148 161.415 73.6724 160.764 73.4299Z" fill="#333333"/>
<path d="M169.08 42.6115C169.221 42.6227 169.4 42.6628 169.539 42.6805C169.738 42.7062 169.934 42.7486 170.126 42.8074C170.2 42.4911 170.206 42.1625 170.142 41.8439C170.031 40.9414 168.992 40.2381 168.54 40.0775C168.479 40.0534 168.413 40.0855 168.431 40.1482C168.509 40.4244 168.783 40.7728 168.911 41.1646C169.065 41.6303 169.123 42.1227 169.08 42.6115Z" fill="#333333"/>
<path d="M232.223 77.104H141.804V78H232.223V77.104Z" fill="#333333"/>
<path d="M141 34.4187L187.002 0L233.305 34.4187L232.251 35.8976L187.167 2.23366L142.064 36.0164L141 34.4187Z" fill="#F15A24"/>
</g>
<g clip-path="url(#clip1)">
<path d="M20.5235 85C25.7546 85 31.3775 86.6732 35.2568 90.4128L31.7694 95.7687C28.9602 93.366 24.7242 91.5836 20.8626 91.5836C12.0869 91.5836 7.47671 97.8875 7.47671 105.196C7.47671 112.623 12.2586 119.368 20.9198 119.368C25.191 119.368 29.4665 117.302 32.5004 114.344L36.3268 119.534C34.291 121.609 31.849 123.248 29.151 124.352C26.453 125.455 23.5559 126 20.638 125.952C8.09757 125.952 0 116.97 0 105.305C0 93.8116 8.48946 85 20.5235 85Z" fill="#333333"/>
<path d="M56.0841 107.429H57.3214V107.035C57.3214 103.3 54.9041 102.016 51.9231 102.016C49.1094 102.016 46.2429 103.187 43.9356 104.751L41.2936 99.6699C43.6538 97.7739 48.2684 96.175 52.5395 96.175C60.025 96.175 64.4635 100.303 64.4635 107.499V125.296H57.8102V122.898C57.8084 122.207 57.8644 121.518 57.9775 120.836H57.8674C56.9399 122.401 55.616 123.698 54.0272 124.598C52.4383 125.499 50.6398 125.971 48.81 125.969C43.6362 125.969 39.365 122.618 39.365 117.433C39.3518 108.879 49.7126 107.429 56.0841 107.429ZM50.8002 120.535C54.794 120.535 57.4051 116.515 57.4051 113.06V112.278H56.1678C52.5659 112.278 46.4807 112.78 46.4807 116.795C46.4498 118.695 47.9117 120.539 50.8002 120.539V120.535Z" fill="#333333"/>
<path d="M73.1599 102.85H69.4524V97.2191H73.3317V89.0716H80.302V97.2191H86.8232V102.85H80.302V113.955C80.302 118.643 84.0095 119.311 85.9778 119.311C86.4123 119.323 86.8467 119.285 87.2723 119.198V125.393C86.5425 125.492 85.8073 125.547 85.0707 125.559C81.077 125.559 73.1467 124.388 73.1467 114.847L73.1599 102.85Z" fill="#333333"/>
<path d="M93.7451 85.6859H107.351C119.68 85.6859 127.712 92.9378 127.712 105.437C127.712 117.935 119.667 125.296 107.351 125.296H93.7451V85.6859ZM106.955 119.106C115.052 119.106 120.226 114.362 120.226 105.437C120.226 96.6206 114.942 91.8937 106.955 91.8937H100.997V119.119L106.955 119.106Z" fill="#333333"/>
<path d="M147.844 96.1706C156.619 96.1706 163.647 102.361 163.647 111.068C163.647 119.774 156.602 125.965 147.901 125.965C139.2 125.965 132.155 119.827 132.155 111.068C132.155 102.309 139.182 96.1706 147.844 96.1706ZM147.901 119.936C152.568 119.936 156.447 116.367 156.447 111.068C156.447 105.769 152.568 102.195 147.901 102.195C143.233 102.195 139.411 105.821 139.411 111.068C139.411 116.314 143.233 119.923 147.901 119.923V119.936Z" fill="#333333"/>
<path d="M180.745 130.971C185.148 130.971 188.842 129.132 188.842 124.051V122.269C188.851 121.765 188.888 121.262 188.952 120.762H188.842C187.156 123.274 184.624 124.724 180.797 124.724C172.59 124.724 167.975 118.141 167.975 110.329C167.975 102.518 172.378 96.1575 180.63 96.1575C183.836 96.1575 187.266 97.2715 189.177 99.8971H189.348C189.272 99.6434 189.233 99.3799 189.234 99.1151V96.8259H195.984V123.549C195.984 133.317 188.336 136.996 180.855 136.996C177.3 136.965 173.799 136.126 170.621 134.545L172.823 129.132C175.293 130.321 177.999 130.949 180.745 130.971ZM182.374 118.739C185.747 118.739 189.009 116.786 189.009 110.373C189.009 103.96 185.747 102.169 181.925 102.169C177.592 102.169 175.174 105.292 175.174 110.093C175.174 115.069 177.706 118.752 182.374 118.752V118.739Z" fill="#333333"/>
<path d="M204.306 85.6859H211.563V102.461H229.836V85.6859H237.058V125.296H229.836V108.656H211.563V125.279H204.306V85.6859Z" fill="#F15A24"/>
<path d="M264.987 85C277.074 85 285.621 93.8684 285.621 105.196C285.621 116.856 277.074 125.952 264.987 125.952C252.9 125.952 244.345 116.856 244.345 105.196C244.345 93.8684 252.909 85 264.987 85ZM264.987 119.368C272.631 119.368 278.144 113.23 278.144 105.196C278.144 97.4943 272.631 91.5836 264.987 91.5836C257.343 91.5836 251.826 97.4812 251.826 105.196C251.826 113.23 257.339 119.368 264.987 119.368Z" fill="#F15A24"/>
<path d="M292.486 85.6859H299.742V111.024C299.742 116.38 303.23 119.394 308.549 119.394C313.868 119.394 317.377 116.38 317.377 111.024V85.6859H324.629V111.072C324.629 119.94 318.218 125.969 308.606 125.969C298.994 125.969 292.464 119.94 292.464 111.072L292.486 85.6859Z" fill="#F15A24"/>
<path d="M334.946 115.126C337.306 117.245 341.133 119.311 344.845 119.311C348.442 119.311 350.692 117.472 350.692 114.794C350.692 107.258 332.08 108.822 332.08 96.4895C332.08 89.4997 337.927 85 345.686 85C349.847 85 354.232 86.3936 357.381 89.2376L354.184 95.0959C351.982 93.1432 348.561 91.636 345.408 91.636C341.754 91.636 339.336 93.4228 339.336 96.1575C339.336 103.523 357.949 101.627 357.949 114.235C357.949 120.653 353.224 125.952 344.677 125.952C339.728 125.952 334.612 124.108 331.027 120.539L334.946 115.126Z" fill="#F15A24"/>
<path d="M365.192 85.6859H389.102V91.8806H372.453V102.256H385.887V108.451H372.453V119.106H390V125.296H365.192V85.6859Z" fill="#F15A24"/>
</g>
<defs>
<clipPath id="clip0">
<rect width="108" height="78" fill="white" transform="translate(141)"/>
</clipPath>
<clipPath id="clip1">
<rect width="390" height="52" fill="white" transform="translate(0 85)"/>
</clipPath>
</defs>
</svg>
