<svg width="108" height="78" viewBox="0 0 108 78" fill="none" xmlns="http://www.w3.org/2000/svg">
    <g clip-path="url(#clipFav)">
        <path d="M47.9738 22.1247C47.2158 23.3115 46.5435 24.5512 45.9618 25.8341C45.8926 25.9846 45.8634 26.1506 45.8769 26.3158L46.0371 28.5495C46.0526 28.7692 45.9845 28.9867 45.8464 29.1581C44.7427 30.531 43.6823 31.9184 42.6587 33.4391C42.5113 33.9642 42.6426 34.1858 42.8653 34.3576C44.0315 35.0658 45.2682 35.6278 46.4648 36.2621C47.4944 36.5224 48.5762 36.4873 49.5869 36.1609C51.7687 35.4046 52.3854 33.4311 53.0117 33.5355C53.715 33.6543 54.1715 36.3601 53.6621 45.7235C53.5747 47.3232 54.0334 48.9051 54.9628 50.2085C56.8969 52.9212 58.8298 55.6344 60.7617 58.3482C60.8594 58.4844 60.9288 58.6389 60.966 58.8024C61.0031 58.966 61.0072 59.1353 60.978 59.3005C59.2832 68.7538 57.1927 71.1095 55.5315 71.4002C54.8731 71.5158 53.3978 71.4596 52.4094 72.5114C51.9235 73.06 51.623 73.7484 51.5508 74.4785C51.5403 74.5609 51.5475 74.6447 51.5719 74.7241C51.5962 74.8036 51.6372 74.8769 51.6921 74.9392C51.747 75.0015 51.8145 75.0514 51.8901 75.0855C51.9658 75.1195 52.0478 75.1371 52.1307 75.1368H56.9364C57.2754 75.1376 57.6087 75.049 57.9028 74.8799C58.1969 74.7108 58.4415 74.4671 58.612 74.1734L66.6519 60.1853C66.759 59.9986 66.8039 59.7826 66.7801 59.5686L66.3139 55.5542C67.0666 55.8852 67.7003 56.439 68.13 57.1414C68.5598 57.8437 68.7651 58.6609 68.7183 59.4835C68.4252 59.7758 65.8974 62.374 66.402 66.2488C66.8938 70.0192 69.8541 71.8787 70.2289 72.1051C69.1813 72.4809 67.6819 72.8325 65.9983 72.5098C64.1497 72.1549 63.3952 71.238 62.2723 71.4997C61.5242 71.6731 60.6047 72.3717 59.8342 74.6567C59.8118 74.7214 59.8055 74.7906 59.8157 74.8584C59.826 74.9261 59.8525 74.9903 59.893 75.0455C59.9336 75.1006 59.9868 75.1451 60.0483 75.175C60.1098 75.2049 60.1776 75.2194 60.2459 75.2171C67.376 75.0052 74.5877 75.4468 81.7226 75.2717C81.8662 75.2675 82.0072 75.2318 82.1355 75.167C82.2639 75.1022 82.3765 75.01 82.4654 74.8968C82.5543 74.7837 82.6174 74.6523 82.6501 74.512C82.6828 74.3718 82.6845 74.226 82.6549 74.0851C82.4706 73.25 82.2736 72.3058 82.1182 71.7101C82.775 71.9493 83.797 72.3299 85.0401 72.8197C87.7313 73.8811 89.4998 74.684 89.8746 74.8398C91.7392 75.6122 95.3675 75.397 103.17 70.7C101.556 71.1641 100.466 71.3648 100.351 71.1031C100.116 70.5716 104.25 69.1071 106.395 65.9469C107.638 64.1131 108.711 60.9689 107.403 55.3486C107.103 57.2097 106.922 57.5759 106.799 57.571C106.478 57.555 107.1 54.732 105.589 52.5224C104.378 50.748 102.937 51.0419 101.56 49.3911C100.784 48.4581 99.9586 46.8218 100.151 43.8383C99.2905 44.5055 98.6572 45.4231 98.3374 46.4653C98.1847 46.9863 98.1165 47.5285 98.1356 48.0711C97.3939 46.7594 97.0468 45.2605 97.1364 43.7554C97.2259 42.2503 97.7482 40.8034 98.6402 39.5893C97.7495 40.0149 96.0403 40.9928 95.0135 42.9213C93.3219 46.0976 94.6579 49.6288 95.2153 51.0997C96.5737 54.6918 98.1116 54.3739 98.7395 56.956C99.8176 61.38 96.1284 65.6867 94.6098 67.4579C93.0672 69.2677 90.8037 71.9044 88.0629 71.4997C86.7109 71.3006 85.7241 70.4287 85.1426 69.7831C87.1788 65.931 88.1849 61.6157 88.0629 57.2579C87.9571 53.9227 87.7425 47.3678 83.3293 43.5251C80.111 40.7278 76.4892 40.9559 73.8604 36.8611C73.2829 35.9563 72.8323 34.9761 72.5212 33.9482C72.3895 33.5242 72.1394 33.1469 71.8004 32.861L64.4925 26.6627C64.1315 24.2275 62.9602 21.986 61.1686 20.3021C57.9119 17.2864 53.9472 17.4341 53.212 17.4743C52.7786 16.7441 52.1506 16.1496 51.3986 15.7577C50.6682 15.3964 50.3846 15.5393 49.5853 15.1523C48.2108 14.4875 47.8792 13.5015 47.4708 13.638C46.8717 13.8372 47.1264 16.0965 47.168 16.4642C47.3614 18.1161 47.8383 19.722 48.5777 21.211C48.3758 21.5064 48.1745 21.811 47.9738 22.1247Z" fill="#333333"/>
        <path d="M59.355 57.1872C59.7095 57.6808 60.0625 58.1625 60.4138 58.6325C60.2514 60.8545 59.794 63.0448 59.0538 65.1456C58.3281 67.1994 57.5432 69.1842 56.51 70.4206C56.269 70.6303 55.9853 70.7849 55.6786 70.8735C54.5661 71.2333 53.3969 71.3841 52.2297 71.3183C52.1746 71.3154 52.1209 71.3001 52.0725 71.2734C52.0242 71.2468 51.9825 71.2095 51.9506 71.1644C51.9187 71.1192 51.8974 71.0675 51.8883 71.0129C51.8792 70.9583 51.8826 70.9024 51.8981 70.8494C51.999 70.5041 52.148 70.1476 52.2714 69.7976C52.3553 69.5632 52.495 69.3529 52.6784 69.185C52.8618 69.0171 53.0834 68.8966 53.3238 68.8341L54.5268 68.5129C54.769 68.4491 54.9953 68.3352 55.1911 68.1787C55.387 68.0222 55.5481 67.8265 55.6642 67.6041C56.269 66.4488 56.7712 65.2425 57.1652 63.999C58.0334 61.2365 58.3661 58.3329 58.1455 55.4449C58.531 56.0166 58.9342 56.5974 59.355 57.1872Z" fill="#333333"/>
        <path d="M48.2509 21.1676C47.7437 20.3172 47.35 19.4037 47.0799 18.4506C46.8629 17.6112 46.7488 16.7484 46.7403 15.8813C46.3819 15.8111 46.0373 15.6832 45.7199 15.5024C45.2393 15.2294 45.1368 15.0078 45.0022 15.0479C44.6466 15.1555 44.5985 16.946 45.2281 18.4554C45.8464 19.936 47.2048 21.007 48.0154 21.5064C48.0907 21.4149 48.1371 21.2543 48.2509 21.1676Z" fill="#333333"/>
        <path d="M69.4407 71.9156C68.7261 72.1246 67.9858 72.2327 67.2413 72.2368C66.0211 72.2387 64.8191 71.9398 63.7412 71.3665C63.3407 71.1384 63.2606 71.0999 63.4929 70.631C63.8597 69.8763 64.2346 69.629 64.5309 69.6049C65.7516 69.5037 65.5401 70.2825 66.4035 70.6021C67.0315 70.81 67.6886 70.9157 68.3498 70.9152C68.681 71.2827 69.0462 71.6176 69.4407 71.9156Z" fill="#333333"/>
        <path d="M34.313 46.7335L34.2585 48.5802C34.2526 48.7423 34.1928 48.8977 34.0887 49.0218C33.8596 49.2916 33.6738 49.4778 33.4335 49.7701C33.377 49.8389 33.3002 49.8878 33.2141 49.9098L31.0387 50.4124C30.6907 50.49 30.3811 50.6878 30.164 50.9712C29.6369 51.6251 29.3108 52.4184 29.2253 53.2547C29.1228 54.5554 29.7844 55.103 30.2826 56.5353C31.2437 59.2652 30.8993 59.9621 30.3451 62.2712C30.1464 63.1062 29.7043 64.9208 28.9866 66.3162C28.8642 66.5555 28.7979 66.8197 28.7928 67.0886C28.6967 71.2894 28.7271 73.1907 29.2253 73.2982C29.5345 73.3641 29.8565 73.0381 30.1865 73.1971C30.6798 73.4395 30.9698 74.2521 30.5068 75.1401C30.4875 75.1756 30.4591 75.2052 30.4244 75.2258C30.3897 75.2465 30.3501 75.2573 30.3098 75.2573C29.3599 75.2573 28.5381 75.2926 28.0367 75.222C27.9044 75.2008 27.7854 75.1288 27.7051 75.0213L26.949 74C26.7432 73.664 26.6701 73.2631 26.744 72.8759C26.9362 71.8803 27.0644 70.2215 26.2634 68.5563C26.0939 68.2079 25.8923 67.8762 25.6611 67.5656C25.4938 67.3456 25.3836 67.0873 25.3407 66.814L25.2046 65.8811C24.3139 65.8811 23.7164 66.1492 22.6848 66.8445C21.9607 67.3263 21.7236 67.7534 21.8278 68.5611C21.8918 68.7217 22.4685 70.2954 21.5266 71.792C20.519 73.3978 18.6945 73.4556 18.5551 73.4588C21.0124 73.9968 22.5518 74.0754 23.6411 73.7109C24.4821 73.4315 25.4032 72.8904 25.8581 73.3079C26.3131 73.7254 26.4172 74.4785 26.06 75.124H13.4851C13.421 75.1239 13.3578 75.1096 13.2998 75.0823C13.2418 75.0551 13.1905 75.0154 13.1495 74.9661C13.1084 74.9169 13.0786 74.8592 13.0621 74.7971C13.0457 74.7351 13.0429 74.6702 13.0542 74.607L13.1407 74.1381C13.1634 74.022 13.156 73.9019 13.1193 73.7895C13.0825 73.677 13.0177 73.5759 12.9308 73.4958L12.6329 73.2212C12.3589 73.2581 11.9008 73.2212 11.2008 73.1072C5.86324 71.6138 3.73432 69.4138 3.35147 67.7968C2.57134 64.6109 6.16921 61.881 5.45957 58.2519C4.95977 55.6971 2.75556 54.2374 0.524116 53.1535C0.300042 53.0022 0.131318 52.7818 0.0435462 52.5256C0.00470635 52.4276 -0.00903954 52.3213 0.00355986 52.2165C0.0161593 52.1117 0.0547048 52.0118 0.115685 51.9258C0.176665 51.8397 0.258144 51.7704 0.352702 51.724C0.44726 51.6776 0.551892 51.6556 0.657073 51.6601C0.923121 51.6707 1.18468 51.7323 1.42759 51.8416C3.68466 52.9415 6.30376 54.7031 6.87404 57.3944C7.66217 61.1552 4.40552 63.9316 4.85725 67.0886C5.0655 68.5242 6.67701 70.1557 10.9445 71.3601L10.8051 71.1128C10.8051 71.1128 10.2893 70.1075 10.2893 70.0722C10.1837 69.8085 10.0991 69.5368 10.0362 69.2597C10.0362 69.2597 9.17757 65.6241 10.5904 62.2407C11.9088 59.0869 14.4799 55.7421 18.9091 54.7705C21.1662 54.0126 21.879 52.9303 22.233 51.5413C22.2907 51.3085 22.5967 48.3152 22.6928 46.9808C22.7709 45.9639 23.2285 45.0138 23.9743 44.32C24.3459 43.97 24.7192 43.6665 25.0956 43.2586C25.8488 42.2169 26.2425 40.9575 26.217 39.6712C26.2153 39.6372 26.2235 39.6034 26.2404 39.5738C26.2574 39.5442 26.2824 39.5202 26.3126 39.5045C26.3428 39.4887 26.3768 39.482 26.4107 39.4851C26.4446 39.4882 26.4768 39.501 26.5037 39.5219C27.0457 39.9182 27.4636 40.4614 27.7083 41.0876C27.9107 41.6182 27.98 42.1906 27.9102 42.7544C29.1949 42.9023 30.4323 43.328 31.5369 44.0021C31.5985 44.042 31.6435 44.1031 31.6634 44.1739C31.7691 44.5689 32.1216 45.6191 33.1468 46.1876C33.4489 46.3554 33.7789 46.4669 34.1207 46.5168C34.1735 46.5234 34.2222 46.549 34.2575 46.5889C34.2929 46.6288 34.3126 46.6802 34.313 46.7335Z" fill="#333333"/>
        <path d="M30.2056 51.3518C29.8554 51.8546 29.6277 52.4326 29.5408 53.0395C29.4111 53.9564 29.8612 54.7352 30.2585 55.5895C30.7346 56.6517 31.0281 57.787 31.1267 58.9472C31.3546 57.6332 31.9286 56.4041 32.7895 55.3872C33.578 54.4612 34.5932 53.7568 35.7354 53.343C38.2391 51.355 39.0096 49.5164 39.2435 48.1675C39.5078 46.6019 39.0481 45.6207 39.3701 43.4481C39.5833 42.0358 40.0345 40.6702 40.7045 39.4095C40.9959 39.3435 41.2693 39.2141 41.5054 39.0305C41.9315 38.6949 42.4057 38.0317 42.2359 37.566C42.0036 36.9334 40.5699 36.6572 39.6168 37.2449C39.0897 37.566 38.9007 38.0815 38.5835 39.0113C37.8034 41.3076 37.3501 42.9487 37.3501 42.9487C36.7333 45.3895 36.7093 45.762 36.2928 46.5087C35.8699 47.2352 35.3022 47.8665 34.6253 48.3634C34.5597 48.4153 34.5143 48.4886 34.4971 48.5706L34.449 48.8131C34.4289 48.9158 34.3844 49.0122 34.3193 49.0941C34.0584 49.4085 33.7808 49.7087 33.4879 49.9933C33.3917 50.0887 33.2716 50.1564 33.1403 50.1892C32.5732 50.3241 32.0542 50.414 31.4727 50.5634C30.7711 50.6886 30.5821 50.7753 30.2056 51.3518Z" fill="#333333"/>
        <path d="M19.7642 73.4299C20.0841 73.3008 20.39 73.1394 20.6772 72.9482C20.824 72.8448 20.9626 72.7305 21.0921 72.6061C21.2421 72.7604 21.4227 72.8814 21.6224 72.961C22.4153 73.2822 23.2403 72.7571 23.5943 72.4793C23.6609 72.4285 23.7404 72.3977 23.8238 72.3903C23.9071 72.3829 23.9908 72.3993 24.0653 72.4375C24.204 72.5055 24.3298 72.5973 24.4369 72.7089C24.5137 72.7927 24.574 72.8902 24.6147 72.9963C24.624 73.0212 24.6239 73.0486 24.6145 73.0735C24.6051 73.0983 24.5869 73.1188 24.5635 73.1312C24.1813 73.3324 23.7755 73.4851 23.3556 73.5857C21.8562 73.9148 20.4145 73.6724 19.7642 73.4299Z" fill="#333333"/>
        <path d="M28.0794 42.6114C28.2204 42.6227 28.3998 42.6628 28.5392 42.6805C28.7378 42.7062 28.9339 42.7486 29.1255 42.8073C29.1998 42.4911 29.2053 42.1624 29.1415 41.8439C29.0309 40.9414 27.9913 40.2381 27.5396 40.0775C27.4787 40.0534 27.413 40.0855 27.4306 40.1481C27.5091 40.4243 27.7831 40.7728 27.9112 41.1646C28.0652 41.6303 28.1225 42.1227 28.0794 42.6114Z" fill="#333333"/>
        <path d="M91.2234 77.1039H0.804199V78H91.2234V77.1039Z" fill="#333333"/>
        <path d="M0 34.4187L46.0017 0L92.3046 34.4187L91.2505 35.8976L46.1667 2.23366L1.06366 36.0164L0 34.4187Z" fill="#F15A24"/>
    </g>
    <defs>
        <clipPath id="clipFav">
            <rect width="108" height="78" fill="white"/>
        </clipPath>
    </defs>
</svg>
